<?xml version="1.0" encoding="UTF-8" standalone="no" ?>
<!DOCTYPE svg PUBLIC "-//W3C//DTD SVG 1.1//EN" "http://www.w3.org/Graphics/SVG/1.1/DTD/svg11.dtd">
<svg xmlns="http://www.w3.org/2000/svg" xmlns:xlink="http://www.w3.org/1999/xlink" version="1.1" width="500" height="500" viewBox="0 0 500 500" xml:space="preserve">
<desc>Created with Fabric.js 5.3.0</desc>
<defs>
</defs>
<g transform="matrix(1.9162648376 0 0 1.9162648376 140.6430594467 252.3392925771)" id="msoFHIjrawwmpCTPP6W42"  >
<path style="stroke: rgb(0,0,0); stroke-width: 1; stroke-dasharray: none; stroke-linecap: butt; stroke-dashoffset: 0; stroke-linejoin: miter; stroke-miterlimit: 4; fill: rgb(5,76,115); fill-rule: nonzero; opacity: 1;" vector-effect="non-scaling-stroke"  transform=" translate(0, 0)" d="M -70.81923 -40.00361 L -0.16055000000000064 -82.02806000000001 L 70.81924 -41.68939000000001 L -0.16055000000000064 0.187039999999989 L -0.16055000000000064 82.02806999999999 L -70.81923 41.452899999999985 z" stroke-linecap="round" />
</g>
<g transform="matrix(1.9162648376 0 0 1.9162648376 295.8659885211 160.0644090386)" id="Q-zSQ9xFwzebxUTf7hrPl"  >
<path style="stroke: rgb(0,0,0); stroke-width: 1; stroke-dasharray: none; stroke-linecap: butt; stroke-dashoffset: 0; stroke-linejoin: miter; stroke-miterlimit: 4; fill: rgb(5,76,115); fill-rule: nonzero; opacity: 1;" vector-effect="non-scaling-stroke"  transform=" translate(0, 0)" d="M -71.07716 -40.59819 L -0.91246000000001 -80.84307000000001 L 71.07715999999999 -40.59819000000001 L 71.07715999999999 40.015509999999985 L -0.91246000000001 80.84307999999999 L -0.91246000000001 1.1045899999999875 z" stroke-linecap="round" />
</g>
<g transform="matrix(1.9162648376 0 0 1.9162648376 295.8659885211 378.0863815344)" id="0iOpwl6TAA6UAuuq2KHsY"  >
<path style="stroke: rgb(0,0,0); stroke-width: 1; stroke-dasharray: none; stroke-linecap: butt; stroke-dashoffset: 0; stroke-linejoin: miter; stroke-miterlimit: 4; fill: rgb(5,76,115); fill-rule: nonzero; opacity: 1;" vector-effect="non-scaling-stroke"  transform=" translate(0, 0)" d="M -71.57716 -61.17281 L -71.57716 19.876019999999997 L 0 61.17281 L 71.57716 20.35423 L 71.57716 -61.17281 L 0 -19.916150000000002 z" stroke-linecap="round" />
</g>
</svg>